<?xml version="1.0" encoding="utf-8"?>
<!-- Generator: Adobe Illustrator 22.1.0, SVG Export Plug-In . SVG Version: 6.00 Build 0)  -->
<svg version="1.1" id="Layer_1" xmlns="http://www.w3.org/2000/svg" xmlns:xlink="http://www.w3.org/1999/xlink" x="0px" y="0px"
	 viewBox="0 0 508 681" style="enable-background:new 0 0 508 681;" xml:space="preserve">
<style type="text/css">
	.st0{fill:#E73947;}
	.st1{fill:#EA5A4D;}
	.st2{fill:#FABF62;}
	.st3{fill-rule:evenodd;clip-rule:evenodd;fill:#70C0A8;}
	.st4{fill-rule:evenodd;clip-rule:evenodd;fill:#F2935C;}
	.st5{fill:#27566C;}
	.st6{fill-rule:evenodd;clip-rule:evenodd;fill:#F5F5F5;}
</style>
<g id="Penguin_7_">
	<g>
		<path class="st0" d="M321,628.3c-9.2,3.1-30.8,13.2-36.5,14.9c-2.4,0.7,2.5-9.2,1.9-9c-1.9,6-7.1,11.3-12.2,11.6
			c-26.3,1.9-61.3,11.6-85.2,18.3c-6.8,1.9-12.4,2-17,3.6c-7.1,2.5-9.1,8.6-9.1,8.6s140.1,13.9,161.7-10.9
			c5.3-6.1-2.8-32.3-2.8-32.3L321,628.3z"/>
		<path class="st0" d="M294.1,482.6c0-1.4-0.1-3-0.1-4.7c0,0-6.7,39.5-8.3,72.4c-0.3,6.3-0.3,13-0.1,19.8c0.1-0.6,0.2-1.1,0.3-1.6
			C288.9,552.1,294.6,505.7,294.1,482.6z"/>
	</g>
	<path class="st0" d="M318.7,485.6c0,32.6-6.2,101.3-24.3,128c-4.7,6.9-16.4,14.4-29,19.4c-13.9,5.5-28.8,8-36.5,3.1
		c-2.1-1.3-3.4-4.5-4.3-8.4c-2.6-11.8-0.9-30.8-0.9-30.8s-37.8-268,29.7-291.4c17.2-6,44.3,36.7,49.9,54.5
		C312.9,390.1,318.7,454,318.7,485.6z"/>
	<path class="st1" d="M228.9,636.1c-2.1-1.3-3.4-4.5-4.3-8.4c-12.9,10.8-31,24.6-40.8,25.7c-16.3,2-56.9,9.4-68.4,9.6
		c-11.4,0.2-19.5,3.7-22.7,7.1c-3.2,3.4,41,3.8,57.2,5.7c18.8,2.2,55,5.3,71.8-1.3c12.9-5.1,41.5-37.5,41.5-37.5l2.1-4
		C251.5,638.6,236.6,641,228.9,636.1z"/>
	<path class="st2" d="M156.5,451.6c0,0-6.9,26.1,5,51.1s33.4,43,33.4,43l10.3-16.1L156.5,451.6z"/>
	<path class="st3" d="M12,103.4c-6.8-9.2,3.8-21.4,15.4-27c10.9-5.3,28.2-7.5,39.6-8.7c3.7-0.4,12.2-0.7,20.3-4.2
		c4.1-1.8,6.1-6,11-10.4c4.7-4.2,10.3-8.6,17.3-12.2c23.7-12.2,44.6-9,57.7-4.2c24.8,9,45.2,27.3,55.6,51.8
		c8.7,20.4,10,43.7,4.9,65.3c-2.1,8.8-5.2,17.3-6.5,26.2c-2,14.5,4.4,26.9,10.4,39.7c6.8,14.5,14.9,28.5,24.2,41.6
		c11,15.6,23.6,29.7,34.1,45.7c10.7,16.4,20.6,33.4,29.6,50.9c17.9,35,32.1,71.8,42.2,109.7c6,22.7,14.6,45.3,23.5,67
		c6.3,15.5,31.7,60.3,54.2,78c11.3,8.8,49,15.8,51.2,18.3c4,4.6-4.6,8.8-8.2,11.2c-14.2,9.6-31.5,13.9-48.6,14
		c-18.2,0.1-35.4-4.7-52.7-9.8c-5.4-1.6-19.7-6.1-21.4-6.6c-4.4-1.2-13.1-5.5-25.1-6.3c-25.6-1.7-51.9,11.6-56.2,12.5
		c-6.5,1.3-47,17.8-26.2-6.2c12-13.9,24.6-52.7,27.6-69.6c3-16.8,8.6-63.9,8.2-87.4c-0.4-23.5-2.8-71.5-3-83.2s-2.5-42.6-10.9-54.2
		c-8.4-11.6-29.9-29.7-29.9-29.7s-8,6.9-18.1-6.4c-10-13.2-45.5-55.4-45.5-55.4l-51.4-63.7L88.3,159c0,0,13.5-16.8,8.3-30.1
		c-5.1-13.3-18.6-18-28.4-19.5c-9.7-1.5-28.4,0.2-34.6,0.3C27.4,109.7,16.1,108.9,12,103.4z"/>
	<path class="st4" d="M87.8,181.8c0.1,2-4-6.3-5.4,0.4c-2.7,13-3,26.9-4,40.1c-1.5,19.6-2.5,39.1-0.7,58.8
		c3.9,41.1,17.3,80.8,33.6,118.6c5.9,13.7,12.2,26.3,21.3,38.2c3.8,4.9,7.8,9.6,12.1,14c10.3,10.6,20.6,22.4,28.8,34.8
		c0.2,0.3,0.4,0.7,0.7,1c3,4.7,6,9.4,9.3,13.8c18.4,24.8,17,38.3,23.8,55c6.8,16.7,6.7,44.7,18.8,46.7c12.3,2,30.5-26.5,31.9-39.2
		c3.6-31.1-26.7-122.1-26.7-122.1s-18.3-19.8-31.6-34.7c-13.3-14.9-50.8-103.2-56.1-121.5c-5.2-18.4-13.4-21.6-13.7-33.3
		s-0.5-30.2-10.3-30c-9.8,0.2-41-9.3-34.9-36.3"/>
	<path class="st5" d="M87.7,169.2c-2.4,5.1-3.5,1.4-4.5,6.5c-1.7,8.6,0.6,18.9,1.5,27.5c1.1,11.2,2.4,22.3,3.9,33.5
		c1.3,9.3,2.7,18.6,4.7,27.8c6.9,31,18.5,60.9,32.1,89.4c6,12.6,12.6,24.9,19.7,36.9c6.5,11.1,13.5,22,22,31.6
		c10.3,11.6,22.7,20.1,34.4,30.1c7.8,6.7,16.1,12.9,24.4,19.2c0,0,19.1-90.4,19.1-90.4s7.5-79.9-1.9-104
		C225.7,232.4,107.9,125.7,87.7,169.2z"/>
	<path class="st6" d="M161.1,53.9c0,0,11.1,14.5,14,25.4c2.8,10.7,2.5,17.7,0,31.6c-2.5,13.9-10.2,24.5-20.5,25.3
		s-26.9-1.6-18.2,11.1c8.7,12.6,54.5-11.9,54.5-11.9l3.2-33l-7.1-33.3l-19.3-28.8L161.1,53.9z"/>
	<path class="st0" d="M94.7,64.1c5.3-7.3,12-13.6,19.6-18.4c5.4-3.4,11.3-5.9,17.5-7.3c9.8-2.1,20-1,29.8,0.6
		c9.1,1.5,17.9,4.9,25.8,9.6c9.8,5.9,17.2,14.5,22.3,24.6c4.1,8.3,6.9,17.2,8.2,26.3c1.3,8.7,1.8,18.6-1.2,27
		c-0.9,2.6-2.2,5-2.6,7.7c-1.3,7.9,3.9,15.3,3.6,23.3c-0.2,7.5-5,13.5-10.8,17.9c-22.5,17.2-26.2-6.2-36.7,1.5
		c-11.3,8.4-2.9,21.9-4.3,30.3c-1.5,8.4,0.5,26.9,12,31.7c11.5,4.8,11.6,15.6,8.5,20c-2.4,3.5-12,5.2-14.5,8.7
		c-2.5,3.4-1.4,11.8,3.6,16.7c5,4.9,18.2,16.5,19.9,19.8c1.7,3.3,15,19.9,11.8,23.3c-3.2,3.4-12.2,6.6-14.6,3.6
		c-3.7-4.6,3-15.2-5.3-23.4c-8.3-8.2-14.9-11.5-19.9-19.8c-5-8.3-5.5-31.8-8.9-40.1s-10.9-6.4-13.2-9.8c-3.3-5,3-13.5-5.3-23.4
		c-8.3-9.9-13.2-9.8-24.7-14.7S88,193,83.9,185.2c-3.3-6.4,0.1-15.9,2.5-22c3.3-8.3,8.1-14.6,16.4-18.2c0.9-0.4,1.7-0.7,2.6-1
		c10.1-3.5,21.7-3.8,32.2-3.2c6.2,0.4,12.4,1.9,18.7,1.6c4.9-0.2,9.8-1.6,13.9-4.2c9.5-6,12.3-17.6,13.1-28.2c0.5-7.1,1-14.4,0-21.5
		c-1.2-8.7-5-15.5-10.4-22.3c-3.6-4.5-7.4-8.8-12-12.2c-2.3-1.7-4.9-3.3-7.7-3.3c-4.4,0-9.7,4.2-11.1,8.3c-0.8,2.4,2.8,3.8,4.1,5.4
		c1.2,1.5,2.1,3.4,2.1,5.3c0,1.4-0.5,2.8-1.1,4c-1.1,2.2-2.6,4.3-4.7,5.5c-2.2,1.3-4.9,1.5-7.5,1.4c-5.1-0.3-12.3-0.4-16.5-3.7
		c-3.6-2.9-2.6-8.5-2.7-12.6c0-1-0.1-2.1-0.7-3c-1-1.5-3.1-1.6-4.8-1.4c-2.9,0.3-5.7,0.9-8.4,1.7c-1.4,0.4-2.8,0.9-4.3,1.4
		C97.3,63.2,95,63.6,94.7,64.1z"/>
	<path class="st2" d="M198.7,260.6c0,0,7,23.9,35,38.5s35.7,32.1,39.3,52.2c3.6,20.1-4.8,42.4-5.1,79c-0.2,25.2-0.3,72.2,1.7,95.7
		c2.1,23.5,7.1,31.8-2.6,35.3c-9.7,3.5-16.3-1.4-30.1-41.4c-13.8-40-26-85.1-25-118.7s4.9-90.7-6.8-102.3
		c-11.6-11.5-23.2-12.7-23.6-22.8S198.7,260.6,198.7,260.6z"/>
	<circle class="st6" cx="340.3" cy="562.2" r="6.1"/>
	<circle class="st6" cx="387.5" cy="603.2" r="6.1"/>
	<circle class="st6" cx="362.6" cy="593.3" r="6.1"/>
	<circle class="st6" cx="351.9" cy="614.2" r="6.1"/>
	<circle class="st6" cx="401.8" cy="629.8" r="6.1"/>
	<path class="st6" d="M460.8,637.7c0,3.4-2.7,6.1-6.1,6.1c-3.4,0-6.1-2.7-6.1-6.1s2.7-6.1,6.1-6.1
		C458.1,631.7,460.8,634.4,460.8,637.7z"/>
	<circle class="st6" cx="376.9" cy="622.1" r="6.1"/>
	<circle class="st6" cx="427.1" cy="634.3" r="6.1"/>
	<circle class="st6" cx="337.1" cy="587.2" r="6.1"/>
	<path class="st6" d="M315.5,589.7c0,3.4-2.7,6.1-6.1,6.1c-3.4,0-6.1-2.7-6.1-6.1s2.7-6.1,6.1-6.1
		C312.7,583.6,315.5,586.3,315.5,589.7z"/>
	<circle class="st6" cx="297.2" cy="612.6" r="6.1"/>
	<path class="st6" d="M334.2,609.3c0,3.4-2.7,6.1-6.1,6.1c-3.4,0-6.1-2.7-6.1-6.1c0-3.4,2.7-6.1,6.1-6.1
		C331.5,603.2,334.2,606,334.2,609.3z"/>
	<circle class="st6" cx="312.6" cy="564.1" r="6.1"/>
	<path class="st6" d="M321.5,537.4c0,3.4-2.7,6.1-6.1,6.1c-3.4,0-6.1-2.7-6.1-6.1c0-3.4,2.7-6.1,6.1-6.1
		C318.8,531.3,321.5,534,321.5,537.4z"/>
	<circle class="st6" cx="315.5" cy="510.7" r="6.1"/>
</g>
</svg>
